<svg viewBox="0 0 1024 1176.463" xmlns="http://www.w3.org/2000/svg"><path d="M76.845 550.43c-.298.044-.64.07-.99.07-3.844 0-6.96-3.115-6.96-6.958 0-.35.027-.693.076-1.03l-.004.04V382.196h-29.03c-.283.04-.608.064-.94.064-3.828 0-6.932-3.103-6.932-6.932 0-.356.027-.705.08-1.047l-.006.04v-9.798c-.016-.2-.025-.43-.025-.663 0-1.968.655-3.783 1.76-5.238l-.017.022c1.88-1.565 4.263-2.587 6.875-2.797l.044-.003 28.19-3.478v-32.15q0-65.442 62.785-65.502c11.19.092 21.973 1.677 32.21 4.566l-.86-.207c2.453.462 4.553 1.727 6.068 3.505l.012.015c1.143 1.995 1.817 4.385 1.817 6.932 0 .445-.02.886-.06 1.32l.003-.055v10.197c0 4.96-1.92 7.438-5.92 7.438-3.594-.133-7.004-.55-10.317-1.228l.4.07c-4.204-.767-9.044-1.205-13.987-1.205-.27 0-.54 0-.81.004h.042c-1.097-.116-2.37-.183-3.658-.183-8.142 0-15.666 2.65-21.756 7.132l.102-.07c-4.58 5.24-7.374 12.145-7.374 19.702 0 1.004.05 1.996.146 2.974l-.01-.123v36.11h52.945c.31-.05.665-.078 1.027-.078 3.82 0 6.917 3.096 6.917 6.916 0 .338-.024.67-.07.994l.003-.037v14.916c.042.286.065.616.065.953 0 3.86-3.13 6.99-6.99 6.99-.335 0-.666-.025-.99-.07l.037.003h-52.948V542.55c.046.3.072.646.072 1 0 3.835-3.11 6.944-6.945 6.944-.34 0-.674-.024-1-.072l.036.004zm144.96-234.177c-.402.024-.873.037-1.346.037-6.383 0-12.194-2.446-16.547-6.453l.017.016c-3.998-4.538-6.44-10.533-6.44-17.098 0-6.543 2.426-12.52 6.425-17.082l-.025.03c4.315-4.06 10.143-6.557 16.554-6.557.48 0 .954.014 1.426.04l-.065-.002c.398-.024.865-.037 1.334-.037 6.393 0 12.204 2.496 16.512 6.566l-.01-.01c3.973 4.532 6.398 10.51 6.398 17.055s-2.425 12.523-6.424 17.086l.026-.03c-4.323 4.012-10.133 6.473-16.52 6.473-.462 0-.922-.013-1.378-.038l.063.002zM210.008 550.43c-.284.04-.613.064-.946.064-3.845 0-6.96-3.117-6.96-6.96 0-.347.024-.687.073-1.02l-.005.038V359.404c-.04-.284-.065-.613-.065-.947 0-3.822 3.1-6.92 6.92-6.92.348 0 .688.024 1.02.074l-.037-.004h23.153c.3-.046.644-.072.994-.072 3.798 0 6.877 3.08 6.877 6.877 0 .35-.025.696-.076 1.032l.005-.038v183.148c.046.303.073.653.073 1.008 0 3.83-3.104 6.933-6.933 6.933-.33 0-.656-.023-.975-.068l.037.004zm89.934 0c-.282.04-.607.063-.938.063-3.83 0-6.933-3.104-6.933-6.933 0-.356.028-.705.08-1.047l-.005.038V359.404c-.046-.3-.072-.643-.072-.994 0-3.8 3.08-6.877 6.876-6.877.35 0 .694.026 1.03.077l-.037-.005h17.274c.192-.013.416-.02.64-.02 2.032 0 3.925.59 5.52 1.604l-.042-.026c1.63 1.458 2.702 3.508 2.878 5.81l.002.03 2.8 21.993c6.006-6.623 12.536-12.556 19.595-17.82l.36-.255c11.15-8.077 25.106-12.92 40.192-12.92.21 0 .418.002.627.004h-.033c3.16 0 6.318.12 9.398.4l.156-.002c3.635 0 6.58 2.946 6.58 6.58 0 .162-.005.323-.016.483v-.02 21.193c.04.263.063.567.063.877 0 3.462-2.806 6.268-6.268 6.268-.322 0-.638-.024-.947-.07l.035.003c-2.41-.012-4.77-.157-7.094-.428l.296.028c-2.16-.254-4.66-.4-7.197-.4h-.002c-.567-.014-1.236-.022-1.907-.022-19.812 0-37.964 7.11-52.042 18.92l.127-.104V542.55c.045.297.07.64.07.99 0 3.838-3.11 6.95-6.948 6.95-.325 0-.644-.023-.957-.066l.036.004zm216.858 5.877c-2.04.156-4.418.246-6.816.246-25.738 0-49.077-10.27-66.143-26.936l.02.018c-15.534-19.092-24.942-43.71-24.942-70.524 0-2.932.113-5.838.334-8.714l-.024.382c-.14-2.093-.218-4.537-.218-7 0-26.78 9.372-51.368 25.015-70.667l-.165.21c16.102-17.11 38.898-27.768 64.183-27.768 1.73 0 3.448.05 5.153.148l-.236-.01c1.437-.098 3.115-.154 4.806-.154 20.374 0 38.87 8.045 52.483 21.13l-.026-.023c12.525 14.473 20.156 33.482 20.156 54.273 0 1.826-.06 3.638-.175 5.434l.013-.245c-.02 9.022-.747 17.858-2.126 26.475l.127-.962c-.193 2.4-1.13 4.55-2.574 6.254l.013-.016c-1.357 1.02-3.07 1.635-4.926 1.635-.265 0-.528-.012-.787-.036l.033.003H456.816c-.07 1.172-.11 2.542-.11 3.922 0 17.534 6.364 33.583 16.907 45.963l-.083-.1c11.616 10.153 26.92 16.345 43.672 16.345 1.94 0 3.863-.083 5.762-.246l-.247.017h.187c7.89 0 15.646-.583 23.225-1.705l-.86.104c10.614-1.828 19.793-4.132 28.7-7.04l-1.425.402 4.678-1.4c1.07-.387 2.304-.62 3.59-.64h.01c3.398 0 4.998 2.4 4.998 7.08v11.036c.03.328.047.71.047 1.094 0 2.235-.565 4.337-1.56 6.173l.034-.068c-1.807 1.973-4.04 3.526-6.558 4.517l-.12.042c-8.028 3.438-17.432 6.28-27.203 8.072l-.83.126c-9.79 2.01-21.042 3.16-32.563 3.16h-.24.013zm37.672-122.763c.284-2.75.445-5.94.445-9.17 0-.36-.002-.722-.006-1.082v.055c.09-1.13.14-2.444.14-3.772 0-12.254-4.275-23.51-11.413-32.36l.077.1c-7.623-7.623-18.153-12.338-29.786-12.338-1.03 0-2.05.037-3.06.11l.136-.01c-.867-.053-1.88-.083-2.9-.083-13.91 0-26.495 5.675-35.566 14.836l-.004.004c-9.727 11.8-15.64 27.06-15.676 43.7v.007zM741.018 552.55c-2.102.318-4.527.5-6.995.5-27.155 0-49.17-22.014-49.17-49.17 0-2.467.183-4.892.534-7.262l-.033.268v-115.29h-28.232c-.29.044-.626.068-.968.068-3.853 0-6.976-3.123-6.976-6.976 0-.328.023-.65.066-.965l-.004.037v-9.837c-.01-.157-.016-.34-.016-.526 0-2.023.683-3.887 1.83-5.373l-.014.02c1.855-1.538 4.218-2.524 6.805-2.678l.032-.002 28.672-3.6 5.077-48.585c-.003-.08-.005-.173-.005-.266 0-4.2 3.404-7.603 7.603-7.603.24 0 .476.012.71.034l-.03-.002h16.394c.286-.042.617-.066.954-.066 3.838 0 6.95 3.11 6.95 6.95 0 .336-.025.667-.07.99l.003-.036v47.826h51.025c.288-.042.62-.067.957-.067 3.82 0 6.916 3.096 6.916 6.916 0 .363-.028.718-.082 1.066l.005-.04v14.877c.045.3.072.647.072 1 0 3.814-3.09 6.905-6.905 6.905-.34 0-.676-.025-1.003-.072l.037.004h-51.024v113.327c-.09.828-.143 1.788-.143 2.76 0 6.768 2.51 12.95 6.647 17.665l-.026-.03c5.288 3.772 11.883 6.032 19.005 6.032 1.122 0 2.23-.056 3.325-.166l-.138.01c6.59-.13 12.928-.836 19.076-2.073l-.68.114c2.267-.56 4.958-.985 7.71-1.19l.166-.01c.173-.02.375-.034.58-.034 1.508 0 2.853.697 3.73 1.785l.008.01c.75 1.407 1.192 3.078 1.192 4.852 0 .29-.012.578-.035.862l.002-.037v10.637c.017.267.027.578.027.892 0 2.45-.602 4.758-1.666 6.787l.038-.08c-1.514 2.04-3.69 3.513-6.205 4.106l-.072.015c-10.03 3.008-21.557 4.74-33.488 4.74-.767 0-1.533-.008-2.296-.022l.115.002zm145.714-2.72c-.328.024-.71.038-1.096.038-2.53 0-4.92-.605-7.03-1.68l.088.042c-2.516-2.38-4.374-5.43-5.288-8.866l-.03-.132-69.34-174.15q-.837-2.367-1.84-4.678c-.578-1.27-.915-2.754-.915-4.317v-.002c0-3.36 1.96-5.12 5.84-5.12h23.193c.364-.03.788-.047 1.216-.047 2.544 0 4.946.61 7.07 1.688l-.09-.04c2.403 2.427 4.176 5.484 5.05 8.9l.028.136 53.745 152.876 53.704-152.876c.948-3.546 2.728-6.596 5.123-9.04l-.003.003c2.064-1.034 4.498-1.64 7.072-1.64.395 0 .788.015 1.177.043l-.052-.003h21.594c3.998 0 5.917 1.76 5.917 5.12-.068 1.576-.43 3.05-1.03 4.395l.03-.076c-.64 1.6-1.28 3.12-1.76 4.68l-69.064 174.15c-.912 3.57-2.76 6.625-5.27 8.988l-.008.01c-2.022 1.032-4.412 1.638-6.942 1.638-.386 0-.768-.014-1.146-.042l.05.003zM805.435 675.99c-85.06 58.417-190.25 93.296-303.59 93.296-.564 0-1.127 0-1.69-.003h.088c-.86.005-1.875.008-2.892.008-142.5 0-272.394-53.972-370.355-142.59l.476.424c-7.757-7.04-.8-16.556 8.398-11.197 107.02 62.286 235.544 99.052 372.654 99.052h.38-.02c102.853-.532 200.572-21.922 289.334-60.15l-4.816 1.846c13.916-5.878 25.672 9.237 11.996 19.314zm34.31-39.228c10.597 13.476-11.756 69.18-21.674 94.093-3.078 7.598 3.4 10.637 10.278 4.918 29.348-26.974 47.675-65.543 47.675-108.393 0-6.178-.38-12.268-1.12-18.246l.07.715c-16.122-6.54-34.824-10.333-54.412-10.333-29.367 0-56.743 8.53-79.785 23.248l.597-.357c-7.318 5.078-6.038 12.156 2 11.156 26.59-3.2 85.854-10.277 96.37 3.2z"/></svg>